<mxfile host="app.diagrams.net" agent="Mozilla/5.0 (Windows NT 10.0; Win64; x64) AppleWebKit/537.36 (KHTML, like Gecko) Chrome/134.0.0.0 Safari/537.36 Edg/134.0.0.0" version="26.1.3">
  <diagram id="prtHgNgQTEPvFCAcTncT" name="Page-1">
    <mxGraphModel dx="965" dy="565" grid="1" gridSize="10" guides="1" tooltips="1" connect="1" arrows="1" fold="1" page="1" pageScale="1" pageWidth="827" pageHeight="1169" math="0" shadow="0">
      <root>
        <mxCell id="0" />
        <mxCell id="1" parent="0" />
        <mxCell id="oolZBtdz7jAca719xic2-17" value="&lt;font style=&quot;font-size: 20px; font-weight: normal;&quot;&gt;三维重建软件&lt;/font&gt;" style="swimlane;whiteSpace=wrap;html=1;startSize=40;" vertex="1" parent="1">
          <mxGeometry x="270" y="200" width="410" height="300" as="geometry" />
        </mxCell>
        <mxCell id="oolZBtdz7jAca719xic2-10" value="&lt;font face=&quot;Tahoma&quot; style=&quot;font-size: 15px;&quot;&gt;图像录入&lt;/font&gt;" style="rounded=1;whiteSpace=wrap;html=1;fillColor=#EBFAFF;strokeColor=#6c8ebf;arcSize=50;" vertex="1" parent="oolZBtdz7jAca719xic2-17">
          <mxGeometry x="150" y="65" width="110" height="35" as="geometry" />
        </mxCell>
        <mxCell id="oolZBtdz7jAca719xic2-12" value="&lt;font face=&quot;Tahoma&quot; style=&quot;font-size: 16px;&quot;&gt;三维重建&lt;/font&gt;" style="rounded=1;whiteSpace=wrap;html=1;fillColor=light-dark(#fff6d6, #36210a);strokeColor=#d79b00;arcSize=0;" vertex="1" parent="oolZBtdz7jAca719xic2-17">
          <mxGeometry x="150" y="140" width="110" height="45" as="geometry" />
        </mxCell>
        <mxCell id="oolZBtdz7jAca719xic2-18" value="" style="edgeStyle=orthogonalEdgeStyle;rounded=0;orthogonalLoop=1;jettySize=auto;html=1;" edge="1" parent="oolZBtdz7jAca719xic2-17" source="oolZBtdz7jAca719xic2-10" target="oolZBtdz7jAca719xic2-12">
          <mxGeometry relative="1" as="geometry" />
        </mxCell>
        <mxCell id="oolZBtdz7jAca719xic2-30" style="edgeStyle=orthogonalEdgeStyle;rounded=0;orthogonalLoop=1;jettySize=auto;html=1;exitX=0.5;exitY=1;exitDx=0;exitDy=0;" edge="1" parent="oolZBtdz7jAca719xic2-17" source="oolZBtdz7jAca719xic2-13" target="oolZBtdz7jAca719xic2-9">
          <mxGeometry relative="1" as="geometry" />
        </mxCell>
        <mxCell id="oolZBtdz7jAca719xic2-13" value="&lt;font face=&quot;Tahoma&quot; style=&quot;font-size: 15px;&quot;&gt;结果可视化&lt;/font&gt;" style="rounded=1;whiteSpace=wrap;html=1;fillColor=#D9FFDC;strokeColor=#82b366;arcSize=25;" vertex="1" parent="oolZBtdz7jAca719xic2-17">
          <mxGeometry x="150" y="230" width="110" height="35" as="geometry" />
        </mxCell>
        <mxCell id="oolZBtdz7jAca719xic2-19" value="" style="edgeStyle=orthogonalEdgeStyle;rounded=0;orthogonalLoop=1;jettySize=auto;html=1;" edge="1" parent="oolZBtdz7jAca719xic2-17" source="oolZBtdz7jAca719xic2-12" target="oolZBtdz7jAca719xic2-13">
          <mxGeometry relative="1" as="geometry" />
        </mxCell>
        <mxCell id="oolZBtdz7jAca719xic2-29" style="edgeStyle=orthogonalEdgeStyle;rounded=0;orthogonalLoop=1;jettySize=auto;html=1;exitX=0.9;exitY=0.5;exitDx=0;exitDy=0;exitPerimeter=0;entryX=0;entryY=0.5;entryDx=0;entryDy=0;" edge="1" parent="oolZBtdz7jAca719xic2-17" source="oolZBtdz7jAca719xic2-7" target="oolZBtdz7jAca719xic2-10">
          <mxGeometry relative="1" as="geometry" />
        </mxCell>
        <mxCell id="oolZBtdz7jAca719xic2-7" value="" style="shape=actor;whiteSpace=wrap;html=1;" vertex="1" parent="oolZBtdz7jAca719xic2-17">
          <mxGeometry x="50" y="55" width="40" height="55" as="geometry" />
        </mxCell>
        <mxCell id="oolZBtdz7jAca719xic2-9" value="User" style="text;html=1;align=center;verticalAlign=middle;resizable=0;points=[];autosize=1;strokeColor=none;fillColor=none;" vertex="1" parent="oolZBtdz7jAca719xic2-17">
          <mxGeometry x="45" y="110" width="50" height="30" as="geometry" />
        </mxCell>
      </root>
    </mxGraphModel>
  </diagram>
</mxfile>
